<svg width="86" height="30" viewBox="0 0 86 30" fill="none" xmlns="http://www.w3.org/2000/svg">
<path d="M3.84 0.799999H0V23.2H12.256V19.872H3.84V0.799999Z" fill="#0E0F18"/>
<path d="M21.171 23.616C26.643 23.616 29.747 19.2 29.747 14.752C29.747 10.272 26.643 5.856 21.171 5.856C15.667 5.856 12.563 10.272 12.563 14.752C12.563 19.2 15.667 23.616 21.171 23.616ZM21.171 20.288C18.323 20.288 16.403 18.112 16.403 14.752C16.403 11.392 18.323 9.184 21.171 9.184C23.987 9.184 25.907 11.392 25.907 14.752C25.907 18.112 23.987 20.288 21.171 20.288Z" fill="#0E0F18"/>
<path d="M46.5413 29.6V26.272H38.5733C38.2853 26.272 38.2533 26.144 38.3173 25.952L39.2773 23.456C45.0373 24.032 48.7173 19.552 48.7173 14.752C48.7173 12 47.5333 9.408 45.4853 7.808C46.5732 5.696 48.0452 4.032 50.3173 4.128V0.799999C47.3413 0.799999 44.4293 2.944 42.4773 6.24C41.7733 5.984 40.9733 5.856 40.1413 5.856C34.6372 5.856 31.5333 10.272 31.5333 14.752C31.5333 17.92 33.1333 20.928 35.8533 22.496L33.6772 28.48C33.4212 29.184 33.7093 29.6 34.3813 29.6H46.5413ZM40.1413 20.288C37.2933 20.288 35.3733 18.112 35.3733 14.752C35.3733 11.392 37.2933 9.184 40.1413 9.184C42.9573 9.184 44.8773 11.392 44.8773 14.752C44.8773 18.112 42.9573 20.288 40.1413 20.288Z" fill="#0E0F18"/>
<path d="M51.2693 3.552H55.4293V0H51.2693V3.552ZM55.3013 23.2V6.272H51.4613V23.2H55.3013Z" fill="#0E0F18"/>
<path d="M73.0732 18.752C73.0732 15.552 70.1292 14.24 67.2172 13.632C64.6572 13.12 62.3853 12.576 62.3853 11.04C62.3853 9.76 63.6333 9.088 65.8092 9.152C68.0813 9.184 69.2012 10.496 69.0413 12.032H72.6572C72.6572 8.544 70.1612 5.856 65.6492 5.856C61.5852 5.856 58.7052 7.616 58.6413 10.752C58.5452 14.048 60.9452 14.944 63.8892 15.776C66.5132 16.448 69.3932 16.96 69.3932 18.432C69.3932 19.84 68.1772 20.416 66.0332 20.384C63.7932 20.384 61.9373 19.616 61.9373 17.504H58.1292C58.1292 21.216 61.4892 23.616 66.2892 23.616C70.6412 23.616 73.0732 22.208 73.0732 18.752Z" fill="#0E0F18"/>
<path d="M82.426 20.064C81.05 20.064 80.346 19.296 80.346 17.568V9.6H84.954V6.272H80.346V1.984H76.538V6.272H74.842V9.6H76.538V18.272C76.538 21.632 78.874 23.392 81.946 23.392H85.274V20.064H82.426Z" fill="#0E0F18"/>
</svg>
